<!-- Created with Inkscape (http://www.inkscape.org/) -->
<svg width="37.461" height="36.843" version="1.1" viewBox="0 0 9.9116 9.7479" xml:space="preserve" xmlns="http://www.w3.org/2000/svg"><g stroke="#000"><ellipse transform="translate(-101.32 -75.659)" cx="106.28" cy="80.533" rx="4.7574" ry="4.6755" fill="#f4f61f" stroke-width=".39688"/><path d="m2.6288 6.1241c0.42472 0.80602 1.6174 0.9445 2.3924 0.94451 0.80551-1.484e-4 1.9263-0.13864 2.351-0.94451" fill="none" stroke-width=".74083" style="paint-order:normal"/><path d="m0.19432 4.6023 2.6591-1.5955h2.117m4.7557 1.6568-2.6386-1.6568h-2.117" fill="none" stop-color="#000000" stroke-width=".39688" style="-inkscape-stroke:none;font-variation-settings:normal"/></g><g stroke-width=".26458"><path d="m5.1852 3.0477c1.7284 0 2.6489 0 2.3216 1.483-0.32727 1.483-2.07-0.23054-2.1886-0.34773-0.11866-0.11718-0.13295-1.1352-0.13295-1.1352z"/><path d="m4.6739 3.0477c-1.7284 0-2.6489 0-2.3216 1.483 0.32727 1.483 2.07-0.23054 2.1886-0.34773 0.11866-0.11718 0.13295-1.1352 0.13295-1.1352z"/></g></svg>
